<svg width="24" height="24" viewBox="0 0 24 24" fill="none" xmlns="http://www.w3.org/2000/svg">
<g clip-path="url(#clip0)">
<path d="M23.9202 4.5H0V19.3454H23.9202V4.5Z" fill="white"/>
<path fill-rule="evenodd" clip-rule="evenodd" d="M0 10.0123L0 4.5H23.9202V12.8779H9.47631L9.03741 13.4152L8.5985 12.8779H4.64838V16.639H8.5985L9.01746 16.0619L9.45636 16.639H11.8504V15.7634C12.1075 15.7634 12.3336 15.7634 12.5287 15.7634C12.7237 15.7634 12.8966 15.7169 13.0474 15.6241V16.639H14.6434V16.0619L15.1022 16.639C19.9829 16.639 22.623 16.639 23.0224 16.639C23.4219 16.639 23.7212 16.5395 23.9202 16.3405V19.3454H0L0 11.7237H1.11721L1.33666 11.1466H1.97506L2.21446 11.7237H11.2319V11.1466L11.7107 11.7237H14.1446C14.1446 11.4583 14.1446 11.3257 14.1446 11.3257C14.3641 11.5844 15.0064 11.7237 15.3616 11.7237C15.5984 11.7237 16.0838 11.7237 16.818 11.7237L17.0374 11.1466H17.6758L17.9152 11.7237H20.2893V11.067L20.7082 11.7237H22.3441V7.96259H20.7082V8.61929L20.2893 7.96259H18.6334V9.07699L18.1347 7.96259C16.41 7.96259 15.4359 7.96259 15.2123 7.96259C14.877 7.96259 14.3242 8.16159 14.1446 8.40039C14.1446 8.40039 14.1446 8.25446 14.1446 7.96259H5.46633L5.18703 8.77849L4.88778 7.96259H2.93267V9.07699L2.45387 7.96259H0.877806L0 10.0123ZM5.12718 13.3555H7.42145V13.9724H5.82544V14.4301H7.38155V15.047H5.82544V15.5246H7.42145V16.1614H5.12718V13.3555ZM9.03741 14.2112L9.71571 13.3555H10.5736L9.45636 14.7584L10.5736 16.1614H9.71571L9.03741 15.2659L8.3591 16.1614H7.50125L8.61845 14.7584L7.50125 13.3555H8.3591L9.03741 14.2112ZM10.6534 13.3555C11.5578 13.3555 12.1164 13.3555 12.3292 13.3555C12.6484 13.3555 13.207 13.6125 13.207 14.2609C13.207 14.9094 12.6484 15.2421 12.3292 15.2421C12.1164 15.2421 11.7973 15.2421 11.372 15.2421V16.1614H10.6534V13.3555ZM11.3716 13.9724V14.6155C11.6673 14.6155 11.9466 14.6155 12.2095 14.6155C12.6038 14.6155 12.6038 13.9724 12.2095 13.9724C11.9466 13.9724 11.6673 13.9724 11.3716 13.9724ZM13.5262 13.3555C14.4306 13.3555 14.9892 13.3555 15.202 13.3555C15.5212 13.3555 16.0599 13.6025 16.0599 14.251C16.0599 14.6833 15.8071 14.9818 15.3017 15.1465L16.2394 16.1614H15.3516L14.5037 15.1465H14.2244V16.1614H13.5262V13.3555ZM14.2244 13.9724V14.5495C14.5202 14.5495 14.7995 14.5495 15.0623 14.5495C15.4566 14.5495 15.4566 13.9724 15.0623 13.9724C14.7995 13.9724 14.5202 13.9724 14.2244 13.9724ZM16.3591 13.3555H18.6534V13.9724H17.0574V14.4301H18.6135V15.047H17.0574V15.5246H18.6534V16.1614H16.3591V13.3555ZM18.9925 15.5246C19.7914 15.5246 20.2902 15.5246 20.4888 15.5246C20.7867 15.5246 20.7853 15.0669 20.4888 15.0669C20.1922 15.0669 20.1302 15.0669 19.7706 15.0669C19.4109 15.0669 18.8928 14.8772 18.8928 14.2311C18.8928 13.585 19.4498 13.3555 19.7706 13.3555C19.9844 13.3555 20.5098 13.3555 21.3466 13.3555L21.0673 13.9724C20.4392 13.9724 20.0269 13.9724 19.8304 13.9724C19.5357 13.9724 19.5279 14.45 19.8304 14.45C20.1329 14.45 20.2294 14.45 20.6484 14.45C21.0673 14.45 21.4065 14.7466 21.4065 15.246C21.4065 15.7454 21.0581 16.1614 20.4289 16.1614C20.0095 16.1614 19.5307 16.1614 18.9925 16.1614V15.5246ZM21.586 15.5246C22.385 15.5246 22.8837 15.5246 23.0823 15.5246C23.3802 15.5246 23.3788 15.0669 23.0823 15.0669C22.7858 15.0669 22.7238 15.0669 22.3641 15.0669C22.0044 15.0669 21.4863 14.8772 21.4863 14.2311C21.4863 13.585 22.0433 13.3555 22.3641 13.3555C22.578 13.3555 23.1033 13.3555 23.9402 13.3555L23.6608 13.9724C23.0327 13.9724 22.6204 13.9724 22.4239 13.9724C22.1292 13.9724 22.1215 14.45 22.4239 14.45C22.7264 14.45 22.8229 14.45 23.2419 14.45C23.6608 14.45 24 14.7466 24 15.246C24 15.7454 23.6516 16.1614 23.0224 16.1614C22.603 16.1614 22.1242 16.1614 21.586 16.1614V15.5246ZM0 11.2461L1.21696 8.44019H2.13466L3.33167 11.2461H2.53367L2.31421 10.669H0.997506L0.778055 11.2461H0ZM1.25686 10.0521H2.05486L1.65586 9.07699L1.25686 10.0521ZM5.17706 10.2228L5.80549 8.44019H6.94264V11.2461H6.24439V9.11679L5.48628 11.2461H5.18703H4.86783L4.10973 9.11679V11.2461H3.41147V8.44019H4.54863L5.17706 10.2228ZM7.42145 8.44019H9.71571V9.05709H8.1197V9.51479H9.67581V10.1317H8.1197V10.6093H9.71571V11.2461H7.42145V8.44019ZM10.1347 8.44019C11.0391 8.44019 11.5977 8.44019 11.8105 8.44019C12.1297 8.44019 12.6683 8.68723 12.6683 9.33569C12.6683 9.76799 12.4156 10.0665 11.9102 10.2312L12.8479 11.2461H11.9601L11.1122 10.2312H10.8329V11.2461H10.1347V8.44019ZM10.8329 9.05709V9.63419C11.1287 9.63419 11.408 9.63419 11.6708 9.63419C12.0651 9.63419 12.0651 9.05709 11.6708 9.05709C11.408 9.05709 11.1287 9.05709 10.8329 9.05709ZM12.9676 11.2461V8.44019H13.6658V11.2461H12.9676ZM16.1796 8.44019V9.07699C15.6475 9.07699 15.3815 9.07699 15.3815 9.07699C14.4809 9.07699 14.4809 10.6093 15.3815 10.6093C15.3815 10.6093 15.4813 10.6093 15.6808 10.6093C15.4813 11.0338 15.3815 11.2461 15.3815 11.2461C14.5037 11.2461 14.0249 10.7004 14.0249 9.84314C14.0249 8.98591 14.5243 8.44019 15.3815 8.44019C15.3815 8.44019 15.6475 8.44019 16.1796 8.44019ZM15.6908 11.2461L16.9077 8.44019H17.8254L19.0224 11.2461H18.2244L18.005 10.669H16.6883L16.4688 11.2461H15.6908ZM16.9476 10.0521H17.7456L17.3466 9.07699L16.9476 10.0521ZM19.1122 11.2461V8.44019H20.01L21.1471 10.1914V8.44019H21.8454V11.2461H21.0075L19.8304 9.43519V11.2461H19.1122Z" fill="#006CD2"/>
</g>
<defs>
<clipPath id="clip0">
<rect width="24" height="14.8454" fill="white" transform="translate(0 4.5)"/>
</clipPath>
</defs>
</svg>
