<svg width="24" height="24" viewBox="0 0 24 24" fill="none" xmlns="http://www.w3.org/2000/svg">
<path d="M15.1663 6.7655H8.83527V17.106H15.1663V6.7655Z" fill="#FF5F00"/>
<path d="M9.48749 11.9367C9.4867 10.941 9.71242 9.95816 10.1476 9.06257C10.5827 8.16698 11.2158 7.38211 11.9991 6.76735C11.029 6.00495 9.86398 5.53087 8.63719 5.39927C7.4104 5.26767 6.17133 5.48387 5.06161 6.02316C3.95188 6.56246 3.01626 7.40308 2.36169 8.44896C1.70711 9.49484 1.35999 10.7038 1.35999 11.9376C1.35999 13.1714 1.70711 14.3804 2.36169 15.4262C3.01626 16.4721 3.95188 17.3127 5.06161 17.852C6.17133 18.3913 7.4104 18.6075 8.63719 18.4759C9.86398 18.3443 11.029 17.8703 11.9991 17.1079C11.2156 16.4929 10.5823 15.7077 10.1472 14.8118C9.71201 13.9159 9.48643 12.9327 9.48749 11.9367Z" fill="#EB001B"/>
<path d="M22.0107 16.0119V15.8H22.1021V15.7562H21.8847V15.8H21.9706V16.0119H22.0107ZM22.4327 16.0119V15.7562H22.3669L22.2902 15.9388L22.2135 15.7562H22.1477V16.0119H22.1952V15.8183L22.2665 15.9845H22.3158L22.387 15.8183V16.0119H22.4327Z" fill="#F79E1B"/>
<path d="M22.6392 11.9367C22.6392 13.1706 22.292 14.3796 21.6373 15.4256C20.9826 16.4715 20.0468 17.3121 18.937 17.8513C17.8271 18.3905 16.5879 18.6066 15.3611 18.4748C14.1342 18.343 12.9692 17.8687 11.9991 17.1061C12.7821 16.4907 13.4151 15.7057 13.8503 14.81C14.2856 13.9144 14.5117 12.9316 14.5117 11.9358C14.5117 10.94 14.2856 9.95721 13.8503 9.06158C13.4151 8.16594 12.7821 7.38085 11.9991 6.76554C12.9692 6.00291 14.1342 5.52859 15.3611 5.39681C16.5879 5.26502 17.8271 5.48108 18.937 6.0203C20.0468 6.55951 20.9826 7.40012 21.6373 8.44604C22.292 9.49195 22.6392 10.701 22.6392 11.9349V11.9367Z" fill="#F79E1B"/>
</svg>
