<svg width="24" height="24" viewBox="0 0 24 24" fill="none" xmlns="http://www.w3.org/2000/svg">
<g>
<mask id="mask0" style="mask-type:alpha" maskUnits="userSpaceOnUse" x="0" y="8" width="24" height="8">
<path d="M11.8832 8.164L10.2796 15.6606H8.34L9.94433 8.164H11.8832ZM20.0423 13.0043L21.0632 10.1896L21.6509 13.0043H20.0423ZM22.2063 15.6606H24L22.4343 8.164H20.7791C20.4068 8.164 20.0929 8.38033 19.9536 8.71377L17.0437 15.6606H19.0796L19.4841 14.5406H21.972L22.2063 15.6606ZM17.1444 13.2128C17.1531 11.2344 14.4087 11.1252 14.4276 10.2412C14.4336 9.97244 14.6896 9.68666 15.2501 9.61344C15.5276 9.57722 16.2939 9.54911 17.162 9.94877L17.5028 8.35922C17.0358 8.18977 16.4357 8.02689 15.6883 8.02689C13.7717 8.02689 12.4223 9.046 12.4116 10.5048C12.3988 11.5846 13.3744 12.1862 14.1096 12.5452C14.8648 12.9126 15.1181 13.1482 15.1153 13.4768C15.1097 13.98 14.5127 14.2018 13.9546 14.2104C12.9796 14.2257 12.4137 13.9469 11.9628 13.7368L11.6117 15.3796C12.0643 15.5876 12.9008 15.7689 13.7682 15.7778C15.8057 15.7778 17.1381 14.7718 17.1444 13.2128ZM9.11211 8.164L5.97 15.6606H3.92011L2.37389 9.67778C2.28 9.30944 2.19856 9.17422 1.91311 9.01933C1.447 8.76611 0.677222 8.52877 0 8.38133L0.0456667 8.164H3.34578C3.76611 8.164 4.14456 8.44366 4.24 8.92822L5.05667 13.2663L7.07511 8.164H9.11211Z" fill="white"/>
</mask>
<g mask="url(#mask0)">
<path fill-rule="evenodd" clip-rule="evenodd" d="M11.8832 8.164L10.2796 15.6606H8.34L9.94433 8.164H11.8832ZM20.0423 13.0043L21.0632 10.1896L21.6509 13.0043H20.0423ZM22.2063 15.6606H24L22.4343 8.164H20.7791C20.4068 8.164 20.0929 8.38033 19.9536 8.71377L17.0437 15.6606H19.0796L19.4841 14.5406H21.972L22.2063 15.6606ZM17.1444 13.2128C17.1531 11.2344 14.4087 11.1252 14.4276 10.2412C14.4336 9.97244 14.6896 9.68666 15.2501 9.61344C15.5276 9.57722 16.2939 9.54911 17.162 9.94877L17.5028 8.35922C17.0358 8.18977 16.4357 8.02689 15.6883 8.02689C13.7717 8.02689 12.4223 9.046 12.4116 10.5048C12.3988 11.5846 13.3744 12.1862 14.1096 12.5452C14.8648 12.9126 15.1181 13.1482 15.1153 13.4768C15.1097 13.98 14.5127 14.2018 13.9546 14.2104C12.9796 14.2257 12.4137 13.9469 11.9628 13.7368L11.6117 15.3796C12.0643 15.5876 12.9008 15.7689 13.7682 15.7778C15.8057 15.7778 17.1381 14.7718 17.1444 13.2128ZM9.11211 8.164L5.97 15.6606H3.92011L2.37389 9.67778C2.28 9.30944 2.19856 9.17422 1.91311 9.01933C1.447 8.76611 0.677222 8.52877 0 8.38133L0.0456667 8.164H3.34578C3.76611 8.164 4.14456 8.44366 4.24 8.92822L5.05667 13.2663L7.07511 8.164H9.11211Z" fill="url(#paint0_linear)"/>
</g>
</g>
<defs>
<linearGradient id="paint0_linear" x1="0" y1="11.9023" x2="24" y2="11.9023" gradientUnits="userSpaceOnUse">
<stop stop-color="#1D1C45"/>
<stop offset="1" stop-color="#174489"/>
</linearGradient>
<clipPath id="clip0">
<rect width="24" height="7.77778" fill="white" transform="translate(0 8)"/>
</clipPath>
</defs>
</svg>
